<?xml version="1.0" encoding="UTF-8" standalone="no"?>
<!DOCTYPE svg PUBLIC "-//W3C//DTD SVG 1.1//EN" "http://www.w3.org/Graphics/SVG/1.1/DTD/svg11.dtd">
<svg width="100%" height="100%" viewBox="0 0 1110 1110" version="1.1" xmlns="http://www.w3.org/2000/svg" xmlns:xlink="http://www.w3.org/1999/xlink" xml:space="preserve" xmlns:serif="http://www.serif.com/" style="fill-rule:evenodd;clip-rule:evenodd;stroke-linejoin:round;stroke-miterlimit:2;">
    <g transform="matrix(1,0,0,1,-195.198044,-195.198044)">
        <g transform="matrix(0.85906,0,0,0.85906,113.874998,128.650591)">
            <path d="M1386.313,147.374L1386.313,1299.205C1386.313,1337.789 1354.988,1369.114 1316.405,1369.114L164.574,1369.114C125.99,1369.114 94.665,1337.789 94.665,1299.205L94.665,147.374C94.665,108.79 125.99,77.465 164.574,77.465L1316.405,77.465C1354.988,77.465 1386.313,108.79 1386.313,147.374Z" style="fill:url(#_Radial1);"/>
        </g>
        <g transform="matrix(1.096349,0,0,1.096349,-82.16836,-62.14223)">
            <path d="M692.952,327.833C697.873,319.178 707.063,313.831 717.019,313.831L838.403,313.831C838.403,313.831 582.925,754.908 524.358,856.023C517.027,868.681 517.073,884.304 524.478,896.919C563.36,963.148 683.5,1167.787 683.5,1167.787L359.578,1167.787C344.401,1167.787 332.097,1155.483 332.097,1140.306C332.097,1099.164 332.097,1022.368 332.097,984.629C332.097,970.152 335.859,955.923 343.014,943.338C398.158,846.346 645.313,411.625 692.952,327.833Z" style="fill:rgb(131,131,131);"/>
        </g>
        <g transform="matrix(1.096349,0,0,1.096349,-82.16836,-62.14223)">
            <path d="M595.303,894.159C593.182,890.53 593.165,886.045 595.257,882.399C597.349,878.754 601.231,876.506 605.434,876.506C710.628,876.505 1185.974,876.5 1185.974,876.5L1185.974,1140.009C1185.974,1155.307 1173.573,1167.708 1158.275,1167.708C1063.076,1167.708 755.134,1167.708 755.134,1167.708C755.134,1167.708 632.155,957.232 595.303,894.159Z" style="fill:rgb(131,131,131);"/>
        </g>
        <g transform="matrix(1,0,0,1.224904,-2.702398,-61.415095)">
            <g transform="matrix(1.096349,0,0,1.096349,-82.16836,-62.14223)">
                <path d="M1084.534,312.348C1084.534,312.348 900.377,573.9 868.991,618.476C868.057,619.803 868.06,621.435 868.999,622.759C869.937,624.083 871.669,624.898 873.543,624.898C926.031,624.898 1188.439,624.898 1188.439,624.898C1188.439,624.898 1190.126,406.379 1190.679,334.771C1190.725,328.837 1187.87,323.134 1182.746,318.925C1177.623,314.715 1170.655,312.348 1163.386,312.348C1131.885,312.348 1084.534,312.348 1084.534,312.348Z" style="fill:rgb(131,131,131);"/>
            </g>
            <g transform="matrix(1.096349,0,0,1.096349,-82.16836,-62.14223)">
                <path d="M886.257,312.348C886.257,312.348 660.286,635.322 601.365,719.536C598.487,723.65 598.508,728.703 601.422,732.801C604.335,736.898 609.699,739.42 615.503,739.42L1188.439,739.42L1188.439,657.056C1188.439,657.056 885.105,657.16 810.921,657.186C807.578,657.187 804.487,655.731 802.816,653.367C801.144,651.003 801.146,648.09 802.82,645.727C845.19,585.909 1038.961,312.348 1038.961,312.348L886.257,312.348Z" style="fill:rgb(255,146,0);"/>
            </g>
        </g>
    </g>
    <defs>
        <radialGradient id="_Radial1" cx="0" cy="0" r="1" gradientUnits="userSpaceOnUse" gradientTransform="matrix(1291.648314,0,0,1291.648314,94.665109,723.289553)"><stop offset="0" style="stop-color:rgb(65,65,65);stop-opacity:1"/><stop offset="0.35" style="stop-color:rgb(57,57,57);stop-opacity:1"/><stop offset="1" style="stop-color:black;stop-opacity:1"/></radialGradient>
    </defs>
</svg>
